<svg xmlns="http://www.w3.org/2000/svg" viewBox="0 0 64 70" fill="none">
  <defs>
    <clipPath id="s">
      <path d="M32 3C32 3 5 3 5 10V33C5 51 18 63 32 69C46 63 59 51 59 33V10C59 3 32 3 32 3Z"/>
    </clipPath>
  </defs>

  <!-- Shield Left Half -->
  <path d="M8 5C5 5 3 8 3 10V34C3 52 16 64 32 70V3H8Z" fill="#1A3B7A"/>
  <!-- Shield Right Half -->
  <path d="M32 3V70C48 64 61 52 61 34V10C61 8 59 5 56 5H32Z" fill="#2563EB"/>

  <!-- Divider -->
  <line x1="32" y1="4" x2="32" y2="69" stroke="rgba(255,255,255,0.12)" stroke-width="0.7"/>

  <!-- QR Finder 1 - WHITE -->
  <rect x="11" y="13" width="9.5" height="9.5" rx="1" fill="#FFFFFF"/>
  <rect x="13" y="15" width="5.5" height="5.5" rx="0.7" fill="#1A3B7A"/>
  <rect x="14.5" y="16.5" width="2.5" height="2.5" rx="0.5" fill="#FFFFFF"/>

  <!-- QR Finder 2 - WHITE -->
  <rect x="22.5" y="13" width="8" height="8" rx="1" fill="#FFFFFF"/>
  <rect x="24" y="14.5" width="5" height="5" rx="0.7" fill="#1A3B7A"/>
  <rect x="25.3" y="15.8" width="2.4" height="2.4" rx="0.5" fill="#FFFFFF"/>

  <!-- QR Finder 3 - WHITE -->
  <rect x="11" y="24.5" width="8" height="8" rx="1" fill="#FFFFFF"/>
  <rect x="12.5" y="26" width="5" height="5" rx="0.7" fill="#1A3B7A"/>
  <rect x="13.8" y="27.3" width="2.4" height="2.4" rx="0.5" fill="#FFFFFF"/>

  <!-- QR dots - white -->
  <rect x="22.5" y="23.5" width="1.8" height="1.8" rx="0.3" fill="#FFFFFF"/>
  <rect x="26" y="26.5" width="1.8" height="1.8" rx="0.3" fill="#FFFFFF"/>
  <rect x="22.5" y="29" width="1.8" height="1.8" rx="0.3" fill="#FFFFFF"/>

  <!-- Checkmark - thick stroke with rounded caps -->
  <g clip-path="url(#s)">
    <polyline
      points="15,46 27,58 53,28"
      fill="none"
      stroke="#FFFFFF"
      stroke-width="7.5"
      stroke-linecap="round"
      stroke-linejoin="round"
    />
  </g>
</svg>